<?xml version="1.0" encoding="utf-8"?>
<!-- Generator: Adobe Illustrator 26.0.1, SVG Export Plug-In . SVG Version: 6.00 Build 0)  -->
<svg version="1.1" id="Layer_1" xmlns="http://www.w3.org/2000/svg" xmlns:xlink="http://www.w3.org/1999/xlink" x="0px" y="0px"
	 viewBox="0 0 463.3 351.4" style="enable-background:new 0 0 463.3 351.4;" xml:space="preserve">
<style type="text/css">
	.st0{fill:#f5a623;}
	.st1{fill:#FFFFFF;}
</style>
<g>
	<polygon points="76.7,146.9 74.3,149.5 77.6,148.1 	"/>
	<g>
		<path class="st0" d="M53.5,149.9l7.6-4.5c0.2,0.1,0.4,0.2,0.5,0.3l0.9,1.5l2.2,3.8l3.7,6.4c-0.7-0.6-1.3-1.2-2.1-1.7
			c-0.5-0.4-1.1-0.7-1.7-1c-0.5-0.3-1.1-0.6-1.7-0.9c-1.1-0.5-2.3-1-3.5-1.5c-2.1-0.8-4.1-1.5-6.2-2.1L53.5,149.9z M69.2,140.6
			l0.1,0c0.1,2.7-0.3,4.9-1.1,5.3c-0.9,0.4-3.1-0.5-5.2-1.7L69.2,140.6z M75.9,136.6c-0.1,0.6-0.2,1.3-0.2,2c-0.1,1.5-0.1,2.9,0,4.4
			c0,1.5,0.1,2.9,0.3,4.4c0,0.4,0.1,0.9,0.2,1.4l-4.8-8.9c0-0.1,0-0.3,0-0.4L75.9,136.6z M65.2,161.5c0.4-0.5,0.8-1.1,1.2-1.6
			c-1.9-2.1-3.8-3.7-5.5-4.5c-3.4-1.5-6-2.3-8.4-3c-3.4-1-6-1.8-9.3-4.5c-13.8-11.4-26.7-41.8-26.6-57.1c0-6.4,2-10.5,4.1-13.1
			c-2.4,5.8-3.7,15.9,0.6,28.9c4.5,13.8,12.3,27.2,19.5,35.9c5.6,6.9,9.3,8.1,10.3,8.3l0.8,0.2l0,0c2.4,0.7,4.7,1.5,7,2.4
			c1.1,0.5,2.3,1,3.4,1.5c0.5,0.3,1.1,0.5,1.6,0.9c0.5,0.3,1,0.6,1.5,1c0.7,0.5,1.4,1.2,2.1,1.8c0.8-0.8,1.6-1.6,2.5-2.3l-3.7-6.5
			l-1.5-2.7c0.9,0.4,1.8,0.6,2.6,0.7c0.6,0,1.2,0,1.7-0.2c1.2-0.5,1.8-2.1,2.1-3.9l5,9.2c0.9-0.4,1.8-0.7,2.7-1
			c-0.1-0.3-0.2-0.5-0.2-0.8c-0.4-1.3-0.6-2.6-0.7-4.1c-0.1-1.4-0.2-2.8-0.3-4.2c0-1.4,0-2.8,0-4.2c0.1-1.4,0.2-2.8,0.5-4.1l0.3-1.4
			l-0.1,0c0.5-2.5,0.8-6.9-0.7-12.8C74.4,107.8,60.3,85,51.4,78c-8.5-6.6-16.8-10.9-25.5-6.3c-1.8,0.6-11.1,4.6-11.2,19.2
			c-0.1,15.7,13.1,46.9,27.4,58.6c3.5,2.9,6.4,3.8,10,4.8c2.3,0.7,4.8,1.4,8.1,2.9C61.7,158,63.4,159.5,65.2,161.5"/>
		<path class="st0" d="M314.9,77.9l0.4,1.2c-0.3,2.8-1.4,6.6-3,7.2c-1.9,0.7-5.1-1.9-6.6-3.4l-0.7-1.4L314.9,77.9z M300.4,93.1
			c0.9-0.8,1.9-1.5,3-2.1c-2.8-1.1-5.8-1.6-9.1-2c-2.1-0.3-4.3-0.6-6.5-1.1l14.4-5.4l0.1,0.1l2.9,7.4c0.4-0.2,0.8-0.4,1.2-0.5
			L308,89l-0.3-0.8c0.4,0.2,0.7,0.4,1.1,0.6l4.3-1.6c1.1-0.4,2.1-0.7,3.2-0.9c0-0.1,0.1-0.2,0.2-0.3c0.3-0.6,0.5-1.2,0.7-1.7
			l0.6,1.7c1-0.1,2-0.2,3.1-0.2l-2.5-7c0,0,0,0,0,0l0-0.3l-0.5-1.7l14.4-5.4c-1.3,1.8-2.8,3.4-4.2,5c-2.1,2.4-4.1,4.7-5.5,7.2
			c-0.1,0.3-0.3,0.5-0.4,0.8c-0.2,0.4-0.3,0.9-0.5,1.3c1,0.1,2,0.2,3,0.4c0.1-0.2,0.1-0.3,0.2-0.5c1.2-2.5,3.2-4.8,5.4-7.3
			c7.1-8,15.9-18,6.6-45c-2.8-8-7.2-13.7-10.7-17.8C316.1,3.9,304.7,1.2,296.8,1C288.6,0.8,282.6,3,282,3.3c-0.7,0.2-6.8,2.4-13,8
			c-5.9,5.4-13,15-13,30.4c0,5.4,0.4,12.5,3.6,20.4c10.6,26.5,23.8,28.3,34.4,29.8C296.2,92.2,298.4,92.5,300.4,93.1"/>
		<path class="st1" d="M198.9,110.4l-0.6,0.2l0.3,0.6c0,0,0,0,0,0c0,0,0,0.1,0.1,0.1c10.5,14.8,19.1-1.7,19.1-1.7
			C211,107.4,198.9,110.4,198.9,110.4"/>
		<path class="st1" d="M190.8,113.8c-2.4-1.9-5.5-2.1-7.6-2c-0.7,0-1.4,0.1-2.1,0.2c-3.5,0.6-6.6,2.2-8.4,4.3
			c-0.7,0.8-0.8,1.9-0.4,2.7c0.2,0.3,0.4,0.6,0.7,0.8c0.1,0.1,0.2,0.1,0.3,0.1c0.1,0,0.3,0,0.4-0.1c0.2-0.1,0.3-0.2,0.4-0.4
			c0.6-0.8,1.3-2.2,2.1-1.7c1,0.7,0.7,1.3,0.1,2.3c-0.4,0.6,0.1,1.1,0.8,1.4c0.1,0,0.2,0.1,0.3,0.1c0,0,0,0,0,0
			c0.3,0.1,0.7,0.2,1,0.1c1-0.1,5.5-0.2,6.6-1.4c0,0,0.1-0.1,0.1-0.1c0,0,0,0,0-0.1c0.1-0.1,0.1-0.2,0.1-0.3c0.4-1.6-1.3-2.2-0.6-3
			c0.7-0.8,1.2-0.8,3.1,0.4c1.9,1.2,3.9,0.9,4.4-0.5c0-0.1,0-0.2,0-0.3c0,0,0,0,0,0C192.5,115.8,191.9,114.7,190.8,113.8"/>
		<path class="st1" d="M64,168.3c0.4-1,0.8-1.9,1.1-2.9c0-0.1,0.1-0.3,0-0.4c0.7-0.8,1.3-1.7,2-2.7c1.7-2.4,3.6-4.9,6-6.6
			c3.2-2.1,6.5-2.1,10.4-2.1c1.3,0,2.6,0,3.9-0.1c4-0.2,7.6,0.5,11,2.3c2.6,1.4,3.2,3.1,3.2,6.4c-2.6-0.6-6.6-0.4-11.5-0.1
			c-2.4,0.2-5,0.3-5.6,0.1c-0.5-0.1-1,0.1-1.2,0.6c-0.1,0.5,0.1,1,0.6,1.2c0.9,0.3,2.9,0.2,6.3-0.1c4.3-0.3,10.8-0.7,12.3,0.6
			c2.6,2.2,2.7,6.1,2.8,9.6c0,0.5,0,0.9,0,1.3c-2.8-0.9-5.9-0.8-8.8-0.6c-2.9,0.2-5.6,0.3-8.2-0.5c-0.5-0.2-1,0.1-1.2,0.6
			c-0.2,0.5,0.1,1,0.6,1.2c2.9,0.9,6,0.8,8.9,0.6c4.3-0.2,8.3-0.5,11.7,2.6c0.4,0.4,0.8,0.8,1.1,1.1c0.1,0.2,0.2,0.4,0.4,0.5
			c0.7,1.1,0.8,2.1,0.6,3.7c-0.1,0.8-0.5,1.7-1,2.6c-0.5,1-1.1,2.1-1.1,3.2c-2.6-2.8-6.5-3.4-10.2-3.9c-2.4-0.3-4.7-0.7-6.6-1.6
			c-0.5-0.2-1,0-1.2,0.5c-0.2,0.5,0,1,0.5,1.2c2.2,1,4.7,1.4,7.1,1.7c4.4,0.6,8.5,1.2,10.5,5.5c0.9,1.8-0.3,5.5-1,7.9
			c-0.2,0.6-0.3,1.1-0.5,1.5c-0.9,3.3-1.2,4-4.3,4.6c-0.3,0.1-0.6,0.1-0.9,0.2c-1.7,0.4-3.5,0.7-5,0.1c-1.5-0.6-6.2-4.9-6.5-5.9
			c-0.2-1.3,0.6-2.1,1.1-2.5c1-0.8,2.4-1.1,3.3-0.8c2.3,0.8,3.9,2.7,3.6,4.2c-0.1,0.5,0.3,1,0.8,1.1c0.5,0.1,1-0.3,1.1-0.8
			c0.4-2.5-1.7-5.2-4.8-6.3c-1.5-0.5-3.6-0.1-5.1,1.1c-1.4,1.1-2,2.6-1.8,4.2c0.3,2.1,6.1,6.8,7.6,7.4c0.3,0.1,0.7,0.2,1,0.3
			c-0.1,1.6-1,2.9-1.9,4.1c-0.6,0.9-1.3,1.8-1.6,2.8c-0.5,0.6-0.8,1.3-1.1,2c-0.1-0.3-0.2-0.6-0.3-0.9c-0.3-1-0.7-2.1-1.3-3.1
			c-0.2-0.3-0.5-0.4-0.8-0.4c0,0,0,0,0,0c-0.3,0-0.6,0.2-0.8,0.4c-0.2,0.3-0.4,0.6-0.6,1c-0.7,1.2-1.5,2.6-2.5,3.5
			c0-0.2-0.1-0.4-0.1-0.7c-0.2-1.7-0.4-3.4-1.2-5c-0.1-0.2-0.4-0.4-0.7-0.5c-0.3-0.1-0.6,0-0.8,0.2c-1,0.9-1.6,2-2.2,3.2
			c-0.3,0.5-0.5,1-0.8,1.5c-0.1-0.6-0.2-1.2-0.3-1.9c-0.2-1.6-0.4-3.3-1.1-4.8c-0.1-0.3-0.4-0.5-0.7-0.5c-0.3-0.1-0.6,0-0.8,0.3
			c-0.4,0.4-0.7,0.8-1.1,1.2c0.4-2.1,0.5-4.5-0.2-6.2c-0.1-0.3-0.5-0.6-0.9-0.6c-0.4,0-0.7,0.2-0.9,0.6c-0.1,0.3-0.4,0.6-0.8,0.8
			c-0.1-0.4-0.2-0.9-0.3-1.3c-0.2-0.9-0.4-2-1-2.9c-0.2-0.2-0.4-0.4-0.7-0.4c-0.3,0-0.5,0.1-0.7,0.2c-0.4,0.4-0.8,0.9-1.1,1.4
			c-0.1,0.1-0.2,0.2-0.2,0.3c-0.1-0.9,0.1-1.9,0.2-2.9c0.1-0.5,0.2-1.1,0.2-1.6c0-0.4-0.1-0.7-0.5-0.9s-0.7-0.1-1,0.1
			c-0.8,0.6-1.4,1.5-2,2.3c-0.1,0.1-0.1,0.2-0.2,0.3c0.1-1,0.4-2.1,0.6-3.2c0.3-1.3,0.7-2.6,0.7-4.1c0-0.4-0.2-0.7-0.5-0.9
			c-0.3-0.2-0.7-0.1-1,0.1c-0.4,0.3-0.7,0.6-1.1,0.9c-0.1,0.1-0.1,0.1-0.2,0.2c0.2-0.9,0.3-1.8,0.5-2.7c0.4-2,0.8-4.1,0.9-6.1
			c0-0.4-0.2-0.7-0.5-0.9c-0.3-0.2-0.7-0.2-1,0.1c-0.2,0.2-0.4,0.3-0.7,0.5c0.2-0.6,0.5-1.2,0.7-1.8c0.5-1.1,1-2.3,1.2-3.6
			c0.1-0.4-0.1-0.7-0.4-0.9c-0.3-0.2-0.7-0.2-1,0c-0.2,0.1-0.5,0.3-0.7,0.4c0.1-0.1,0.1-0.2,0.2-0.4c0.5-0.8,1-1.7,1-2.8
			c0-0.4-0.2-0.7-0.5-0.9c-0.3-0.1-0.6-0.1-0.8,0c0.3-1,0.7-2.1,1.1-3.1c0.1-0.4,0-0.8-0.3-1c-0.3-0.3-0.7-0.3-1.1-0.1
			c-0.3,0.2-0.6,0.3-0.8,0.5C63,170.7,63.5,169.5,64,168.3 M103.4,161.3c3.2,1.8,4.5,3.3,6.9,7.1c0.3,0.5,0.6,1,0.9,1.5
			c1.7,2.6,3.7,5.9,4.8,8.5c-1.6,1.7-3.1,2-5.1,1c-0.4-0.5-0.9-1.1-1.5-1.6c-0.8-0.7-1.5-1.2-2.3-1.6c0-0.7-0.1-1.4-0.1-2.2
			c-0.1-3.7-0.2-8.2-3.5-10.9c-0.1-0.1-0.2-0.1-0.2-0.2C103.5,162.4,103.5,161.9,103.4,161.3 M25.4,337.4c0.1-0.5,0.5-0.8,1-0.8
			c0.5,0,0.9,0.4,0.9,0.9c0.1,2.2,1.2,4.4,2.3,6.4c1.1,2,2.2,4.1,2.4,6.3c0.9-0.6,1.7-1.2,2.6-1.8c2.3-1.7,4.6-3.4,7.5-4.2
			c0.3-0.1,0.6,0,0.9,0.2c0.2,0.2,0.4,0.5,0.3,0.8c-0.1,1.3-0.3,2.6-0.5,3.9c-0.1,0.7-0.2,1.5-0.3,2.2c5-2.4,10.5-4.2,15.9-6
			c2.9-1,5.6-1.9,8.2-2.8c0.2-0.1,0.4,0,0.7,0c-5.4-12.2,18.6-78.7,18.6-75.6c0-5.2,1.1-10.6,0.4-16.2c-0.1-0.4,0.2-0.8,0.6-1
			c1-0.4,2.1-0.3,3,0.4c0.7,0.6,1.3,1.4,1.7,2.3c0.7-3.2,1.1-6.5,0.6-9.9c-0.1-0.2-0.1-0.3-0.2-0.5c-0.4-0.9-0.8-1.7-1.2-2.6
			c-0.2-0.1-0.4-0.2-0.5-0.4c-0.2-0.3-0.2-0.7,0-1c-0.7-2.1-1-4.3-0.1-6.9c0.5-1.5,1.2-2.9,1.8-4.3c1.1-2.4,2.2-4.7,2.5-7.2
			c0,0,0,0,0,0c0.2-0.5,0.5-1.1,0.8-1.5c0.2-0.2,0.3-0.4,0.4-0.7c0.2-0.7,0.8-1.4,1.3-2.1c0.9-1.3,2.1-2.8,2.3-4.9
			c1.1-0.1,2.1-0.3,3-0.5l0.1,0c0.3-0.1,0.5-0.1,0.8-0.2c4.2-0.8,5-2.3,6-6.2c0.1-0.4,0.3-0.9,0.4-1.5c1.1-3.7,2.1-7.2,0.9-9.6
			c-0.1-0.3-0.3-0.6-0.5-0.9c0.4-0.4,0.6-0.9,0.6-1.4c0.1-0.7,0.5-1.5,0.9-2.4c0.5-1,1.1-2.1,1.2-3.3c0.1-1,0.1-1.8,0-2.6
			c0.2,0,0.3,0,0.5,0c1.7,0,3.3-0.8,4.7-2.3c0.6-0.6,0.8-1.6,0.5-2.4c-1.1-2.9-3.3-6.2-5-8.9l0-0.1c-0.3-0.5-0.6-0.9-0.9-1.4
			c-2.6-4.1-4.2-5.9-7.8-7.9c-0.3-0.2-0.6-0.2-0.9-0.3c-0.4-2.2-1.6-3.9-4.1-5.3c-3.7-2-7.8-2.8-12.2-2.6c-1.3,0.1-2.6,0.1-3.8,0.1
			c-4,0-7.8,0.1-11.6,2.5c-2.9,1.9-4.9,4.7-6.6,7.1c-0.7,1-1.3,1.8-1.9,2.6c-0.3,0.4-0.5,0.9-0.5,1.4c-0.3,0.8-0.6,1.7-1,2.5
			c-0.5,1.2-1,2.5-1.4,3.8c0,0.1-0.1,0.2-0.1,0.3c-0.8,1.3-1.7,2.5-2.7,3.5c-1.9,1.8-5.2,3-6.7,5.1c0.8,0.1,1.8-0.2,2.6-0.5
			c-1.6,0.8-2.2,2.9-3.5,4c-1.4,1.2-3.6,1.6-4.8,2.9c1.2,0.2,2.4-0.5,3.6-0.5c-0.9,1.4-1.4,2.9-2.4,4.1c-1.7,2-3.8,3.8-5.4,5.9
			c0.7-0.5,1.5-1,2.3-1c-0.7,1.4-1.3,3.2-2.2,4.6c-0.7,0.8-1.5,1.6-2.2,2.3c-2.9,2-5.9,4.1-7.3,7.4c1.4-1.4,2.4-1.5,3.9-2.3
			c-0.6,1-0.8,2-1.1,3c-0.7,1.4-1.5,2.7-2.3,4.1c-0.5,0.7-1.1,1.3-1.6,1.8c0.2,0,0.3,0,0.5,0c0,0.1-0.1,0.1-0.1,0.2
			c-2.7,3.8-6,7.3-9.2,10.8c-3.2,3.4-6.5,7-9.1,10.7c0.7-0.6,1.4-1.1,2.3-1.5c0.4-0.2,0.8-0.1,1.1,0.3c0.3,0.3,0.3,0.8,0.1,1.1
			l-0.7,1.2c-3.4,5.2-6.6,10.2-9.2,16.1c-3.3,7.6-4.8,15.9-6.3,23.9c0,0,0,0,0,0c0.1-0.1,0.2-0.3,0.3-0.4c0.7-1.6,1.6-3,3-4.2
			c0.4-0.3,0.9-0.3,1.3,0c0.4,0.3,0.4,0.9,0.1,1.3c-0.6,0.7-1.2,1.6-1.7,2.5c-0.3,0.4-0.6,0.9-0.9,1.3c-2.4,6-0.2,14.4,0.8,18.5
			c1.9,7.3,4,14.1,6.5,20.9c0.6,1.7,1.6,3.6,2.7,5.6c1,1.9,2.1,3.9,2.9,5.9c0.1-0.7,0.3-1.4,0.4-2.1c0.1-0.3,0.3-0.6,0.6-0.7
			c0.3-0.1,0.7,0,0.9,0.2c3.7,3.5,6.6,8.9,8.4,13C25,339.5,25.2,338.4,25.4,337.4"/>
		<path class="st1" d="M133.8,235.3c-0.1,0-0.2,0.1-0.3,0.2c0.2-0.2,0.4-0.3,0.7-0.3C134.1,235.2,133.9,235.3,133.8,235.3
			 M258.6,137.2c-0.9,4.2-6,11-9.8,14.1c0-1.1,0-2.2,0.2-3.1c0.1-0.4,0-0.7-0.3-1c-0.2-0.1-0.4-0.2-0.6-0.2c-0.1,0-0.3,0-0.4,0.1
			c0.2-0.4,0.4-0.7,0.7-1.1c0.4-0.7,0.9-1.3,1.2-2.1c0.1-0.2,0.1-0.5,0-0.8c-0.1-0.2-0.3-0.4-0.5-0.5c-0.1-0.1-0.3-0.1-0.4-0.2
			c0.6-0.5,1.4-1,1.9-1.4c0.4-0.2,0.6-0.7,0.4-1.1c-0.2-0.4-0.6-0.7-1.1-0.6c-0.4,0.1-1,0-1.5,0c-0.1,0-0.3,0-0.4,0
			c0.5-1.7,2-3.6,3.5-4.6c0.4-0.3,0.6-0.9,0.3-1.3c-0.1-0.2-0.3-0.3-0.4-0.4c1.6-1.2,3.8-2.5,5-2.4c0.7,0.1,1.3,0.4,1.7,0.9
			C259,133,258.9,135.4,258.6,137.2 M236.3,118.5c-1.5,0.7-2.6,1.9-3.6,3.1c-0.9,1-1.8,2-2.9,2.5c-1.8,1-4.2,1-6.5,1c-1,0-2,0-3,0.1
			c-0.5,0-0.9,0.5-0.9,0.9c0,2.6,0.4,5.3,0.8,7.9c0.4,2.4,0.8,4.8,0.8,7.3c-0.6-0.3-1.1-0.7-1.4-1c-0.3-0.3-0.7-0.4-1.1-0.2
			c-0.4,0.2-0.6,0.6-0.5,1c0.6,3.1,0.9,6.4,1.1,9.6c0.2,2.1,0.3,4.3,0.6,6.4c0.1,0.5,0.1,1,0.2,1.5c0.3,2.6,0.7,5.5,0.6,8.1
			c-0.5-0.8-1.1-1.7-1.7-2.3c-0.2-0.2-0.5-0.3-0.9-0.3c-0.3,0.1-0.6,0.3-0.7,0.6c-0.5,1.5-1,3-1.5,4.5c-0.4,1.4-0.9,2.8-1.4,4.2
			c-0.3-0.8-0.7-1.6-1.2-2.2c-0.2-0.2-0.4-0.4-0.7-0.4c-0.3,0-0.6,0.1-0.7,0.3c-1.2,1.4-1.9,3-2.5,4.5c-0.3,0.6-0.6,1.3-0.9,1.9
			c-0.4,0.7-0.8,1.2-1.3,1.7c-0.5,0.5-0.9,1-1.3,1.7c-0.5,0.9-0.7,1.9-0.9,3c-0.3,1.6-0.7,2.8-1.3,3.5c-0.4-1.9-1.2-3.6-1.8-4.9
			c-0.2-0.3-0.5-0.5-0.8-0.5c-0.3,0-0.7,0.2-0.8,0.4c-0.5,0.7-0.9,1.9-1.3,3.1c-0.5,1.4-1.2,3.3-1.8,3.8c-0.1,0.1-0.2,0.1-0.3,0.2
			c-0.1-0.2-0.3-0.6-0.5-0.8c-0.5-0.9-1.2-2.2-2.6-2.7c-0.5-0.2-1,0.1-1.2,0.6c-0.6,1.6-1.2,3.3-2.4,4.4c-1-1.2-1.9-2.2-2.9-2.9
			c-0.4-0.3-0.9-0.2-1.3,0.1c-0.7,0.8-1.1,1.7-1.5,2.6c-0.2,0.4-0.4,0.9-0.6,1.3c-0.5-0.5-1.1-1.1-1.6-1.6c-0.8-0.8-1.6-1.7-2.5-2.4
			c-0.3-0.2-0.6-0.3-0.9-0.1c-0.3,0.1-0.5,0.4-0.6,0.8c-0.1,0.9-0.3,1.9-0.5,2.8c-0.4-0.3-0.7-0.7-1-1.1c-0.8-0.9-1.7-1.9-3-2.4
			c-0.3-0.1-0.6-0.1-0.8,0.1c-0.3,0.2-0.4,0.4-0.4,0.7c0,0.3-0.1,0.5-0.2,0.8c-0.3-0.4-0.7-0.8-1-1.2c-0.8-1-1.7-2.1-2.8-2.9
			c-0.2-0.2-0.5-0.2-0.8-0.1c-0.3,0.1-0.5,0.3-0.6,0.6c0,0.1-0.3,0.4-0.4,0.6c-0.1,0.1-0.1,0.2-0.2,0.3c-0.4-0.6-0.7-1.3-1-1.9
			c-0.4-0.7-0.7-1.5-1.1-2.1c-0.1-0.2-0.3-0.3-0.6-0.4c-0.4-1.9-0.7-3.6-0.9-5.1c0-0.1,0.1-0.2,0-0.4c0-0.4,0-0.8,0.2-1.3
			c0.6,2.6,2.2,7.3,6,8.3c1.6,0.4,3.3,0.6,5.2,0.6c2.1,0,4.3-0.2,6.9-0.7c1.7-0.3,3.5-0.8,5.1-1.2c1.2-0.3,2.5-0.7,3.8-0.9
			c0.8-0.2,1.7-0.2,2.7-0.3c1.4-0.1,2.8-0.2,4-0.7c3.3-1.2,7.1-5.2,9-8.4c0.9-1.5,1.1-3.1,1.4-4.6c0.1-0.6,0.2-1.1,0.3-1.6
			c0.2-0.7,0.4-1.5,0.6-2.2c0.4-1.5,0.8-3,0.9-4.6c0.3-6,0.3-11.1,0-15.6c-0.2-3.1-1.2-6-2.1-8.9c-0.4-1.4-0.9-2.7-1.2-4
			c-0.9-3.5-3.4-7.5-7.8-8.3c-4.6-0.9-10.1-0.1-14.9,0.5c-1,0.1-1.9,0.3-2.9,0.4l-0.6,0.1c-4.8,0.6-10.6,1.3-13.2,5.9
			c-0.2-0.1-0.3-0.1-0.3-0.2c0-0.2,0.3-0.7,0.4-1c0.3-0.6,0.7-1.4,0.9-2.3c0.1-0.6,0.2-1.1,0.4-1.7c0.3-1.7,0.6-3.3,1.3-4.7
			c0.2-0.5,0.7-1.1,1.2-1.8c0.2-0.3,0.4-0.6,0.7-0.9c0.1,0,0.1,0,0.2,0.1c0.2,0,0.3,0.1,0.5,0.1c0.1-0.3,0.3-0.6,0.5-0.8
			c0.7-0.8,1.6-1.6,2.6-2.3h-2.2c0,0,0-0.1,0.1-0.1c0.2-2.9,3.5-5.6,6.5-7.9c0.8-0.6,1.6-1.2,2.3-1.8c0.1,0.2,0.1,0.5,0.2,0.7
			c0.1,0.4,0.2,0.8,0.3,1.3c0,0.3,0.3,0.6,0.5,0.7c0.3,0.1,0.6,0.1,0.9-0.1c0.9-0.6,1.7-1.4,2.4-2.1c0.6-0.6,1.2-1.2,1.8-1.6
			c0.1,0.2,0.2,0.4,0.2,0.6c0.1,0.3,0.2,0.7,0.3,0.9c0,0.3,0.2,0.6,0.5,0.8c0.3,0.1,0.7,0.1,0.9-0.1c0.4-0.3,0.8-0.5,1.2-0.8
			c1.2-0.8,2.4-1.8,3.7-2.5c0,0,0,0.1,0,0.1c0,0.6,0,1.2-0.1,1.6c-0.1,0.4,0,0.7,0.3,1c0.3,0.2,0.7,0.3,1,0.1
			c1.8-0.8,3.5-1.8,5.3-2.7c1.6-0.8,3.2-1.7,4.9-2.5c-0.3,0.6-0.7,1.1-1.1,1.6c-0.3,0.3-0.3,0.8-0.1,1.1c0.2,0.3,0.6,0.5,1,0.4
			c2.6-0.6,5.3-1.6,7.9-2.6c-0.3,0.3-0.6,0.5-0.9,0.8l-0.6,0.5c-0.3,0.3-0.4,0.7-0.2,1.1c0.2,0.4,0.5,0.6,0.9,0.6
			c3.8-0.2,9.5-2,13.1-3.4c0.2,1.5,0.9,2.7,1.5,3.8c0.6,1,1.1,1.8,1.1,2.7c0,0.2,0.1,0.5,0.3,0.6c0.2,0.2,0.4,0.3,0.7,0.2
			c0.4,0,0.8,0,1.2-0.1c1.5-0.1,3-0.2,4.4,0.1c-0.6,1-1.9,1.8-3,2.5l-0.4,0.2c-0.3,0.2-0.5,0.6-0.4,0.9c0.1,0.4,0.3,0.7,0.7,0.7
			C235.6,111.9,236.6,115.4,236.3,118.5 M183.9,194.3c0.1,0,0.1,0,0.2,0c0.1,0,0.3,0,0.4,0c0.1,0,0.3-0.1,0.4-0.1
			C184.6,194.4,184.2,194.4,183.9,194.3 M165.2,174C165.2,174,165.2,174,165.2,174c0.5-1.3,1.5-3.1,2.4-4.7c0.6-1.1,1.2-2,1.5-2.8
			c0-0.1,0.1-0.1,0.1-0.2c0.2,0.4,0.3,1.1,0.5,2.2c0.1,1.2,0.2,2.2,0.2,3.1c0.1,2.4,0.1,4.5,2,7.4c0.1,0.2,0.4,0.4,0.6,0.4
			c0.1,0,0.1,0,0.2,0c0.2,0,0.4-0.1,0.6-0.2c2.7-2.1,4.9-2.3,7.7-0.5c0.4,0.3,1,0.1,1.3-0.3c0.1-0.2,0.4-0.5,0.6-0.7
			c0.3,0.1,0.9,0.3,1.1,0.3c0.2,0.1,0.4,0.1,0.5,0.1c1-0.2,1.6-0.6,2.2-1c0.1-0.1,0.2-0.2,0.4-0.2c0.3,0.3,0.6,0.4,0.9,0.5
			c1,0.3,2-0.3,2.8-0.9c0.5-0.3,1.2-0.7,1.5-0.7c0.4,0.1,0.8,0,1-0.3c0.5-0.6,0.9-0.8,1-0.8c0,0,0.1,0,0.2,0.2
			c0.2,0.4,0.6,0.6,1,0.6c0.4-0.1,0.7-0.4,0.8-0.9c0-0.5,0-1.2-0.1-2.1c-0.1-2.3-0.3-7.6,0.7-8.6c0.1-0.1,0.1-0.1,0.2-0.1
			c1.7,0.2,4,4.7,4.7,6.2c0.1,0.2,0.2,0.4,0.3,0.6c0.2,0.3,0.5,0.5,0.8,0.5h0c0.3,0,0.7-0.2,0.8-0.5c0.3-0.6,0.6-1.2,0.9-1.9
			c0.1,0,0.2,0,0.3,0c-0.2,0.8-0.4,1.6-0.8,2.3c-1.8,3-5.3,6.7-8.1,7.6c-1,0.4-2.3,0.5-3.5,0.6c-1,0.1-2,0.1-2.9,0.4
			c-1.3,0.3-2.6,0.6-3.9,1c-1.6,0.4-3.3,0.9-5,1.2c-4.6,0.9-8.3,0.9-11.2,0.1c-2.9-0.8-4.2-5.2-4.7-7.1
			C165,174.6,165.1,174.3,165.2,174 M168.6,141.6c0.2,0.2,0.4,0.3,0.7,0.4c0.1,1.2,0.4,2.4,0.7,3.5c0.2,0.7,0.4,1.4,0.5,2.1
			c0.2,1.3,0.2,2.6,0.3,3.9c0,0.9,0,1.8,0.1,2.8c0.2,2.5-0.2,7.8-1,9.9c-0.1,0-0.2-0.1-0.3-0.1c-0.6-0.1-1.4,0.1-2.1,1.5
			c-0.2,0.5-0.6,1.1-0.9,1.8c0.1-0.5,0.1-0.9,0.2-1.4c0.1-1,0.3-1.9,0.5-2.8c1-3.8,1.7-7,0.9-11.3c-0.2-1.2-0.5-2.4-0.7-3.6
			c-0.5-2.6-1-5.1-1.1-7.8c0-0.9-0.1-1.8-0.3-2.7c-0.1-0.7-0.2-1.4-0.2-2.1C166.3,137.9,167.1,140.3,168.6,141.6 M203.9,131.6
			c-0.7,0.6-1.3,1.5-1.8,2.3c-1,1.6-1.9,3-3.7,3.2c-0.1-0.5-0.2-1-0.2-1.6c-0.5-3.1-0.9-6.3-1-9.6c0-0.4-0.3-0.8-0.7-0.9
			c-0.4-0.1-0.8,0.1-1,0.5c-0.5,0.9-0.9,1.2-1,1.2c-0.2,0-0.5-0.2-0.9-0.8c-0.2-0.2-0.4-0.4-0.7-0.4c-0.3,0-0.5,0.1-0.7,0.2
			c-0.2,0.2-0.4,0.4-0.6,0.6c-0.7,0.7-1.5,1.4-2.1,1.4c-0.4,0-0.8-0.5-1.1-0.9c-0.2-0.2-0.4-0.4-0.7-0.4c-0.3,0-0.6,0.1-0.8,0.3
			c-1.3,1.5-2.3,1.6-4.7,0.2c-0.2-0.1-0.5-0.2-0.8-0.1c-0.3,0.1-0.5,0.3-0.6,0.6c-0.6,2-0.7,2-2.3,1.6c-0.5-0.1-0.8-0.2-1.1-0.3
			c-1.3-0.5-1.8-0.1-2.5,0.9c-0.1-0.1-0.2-0.2-0.2-0.2c-0.2-0.4-0.6-0.5-1-0.4c-0.4,0.1-0.7,0.4-0.7,0.8c-0.3,3.7-1.1,7.5-2.2,10.7
			c-0.1-0.1-0.3-0.1-0.5-0.2c0,0,0,0,0,0c0,0,0,0,0,0c-0.1-0.1-0.2-0.1-0.3-0.2c-1.7-1.4-2.5-6-2.5-8.7c0-0.1,0-0.2-0.1-0.3
			c0,0,0.1-0.1,0.1-0.1c0,0,0.1-0.1,0.1-0.1c0.1-0.1,0.1-0.2,0.2-0.3c1.9-4.2,7.3-4.9,12.1-5.5l0.6-0.1c0.9-0.1,1.9-0.3,2.9-0.4
			c4.7-0.7,10-1.4,14.3-0.6c3.5,0.7,5.6,4,6.3,7C203.8,131.2,203.9,131.4,203.9,131.6C203.9,131.6,203.9,131.6,203.9,131.6
			 M205.7,142c-0.4-2.3-1.5-4.2-2.6-6.1l0-0.1c0,0,0-0.1-0.1-0.1c0.2-0.3,0.4-0.6,0.6-0.9c0.3-0.4,0.6-0.9,0.9-1.3
			c0.2,0.5,0.3,1,0.5,1.5c0.9,2.7,1.8,5.6,2,8.4c0,0.7,0.1,1.4,0.1,2.1C206.5,144.2,205.8,142.6,205.7,142 M201.4,165.6
			c0.6-3.2,2.6-6.9,5.6-8.2c0,0.5,0,1-0.1,1.5c-0.1,1.4-0.5,2.7-0.8,4.2c-0.2,0.8-0.4,1.5-0.6,2.3c-0.1,0.5-0.2,1-0.3,1.5
			c-0.2,0-0.4,0-0.5,0c-0.2-0.2-0.5-0.3-0.8-0.2c-0.3,0-0.6,0.3-0.7,0.6c-0.1,0.3-0.3,0.6-0.4,0.9
			C202.4,167.3,202,166.4,201.4,165.6C201.4,165.6,201.4,165.6,201.4,165.6 M172.1,142.1c0.1-0.1,0.1-0.1,0.1-0.2
			c0.2-0.5,0.4-1,0.5-1.5c0.9,1.6,2.4,3.1,3.8,4.4c0.9,0.9,1.7,1.7,2.2,2.4c0.8,1.1,1.9,4.4,1.5,5.7c-0.2-0.3-0.4-0.6-0.6-0.9
			c-0.6-0.9-1.2-1.8-1.9-2.2c-0.1,0-0.2-0.1-0.2-0.1c-0.6-0.7-1.2-1.3-1.8-2c-1.8-1.8-3.6-3.7-3.6-5.5
			C172.1,142.2,172.1,142.1,172.1,142.1 M194.3,172.7c0,0.1,0,0.2,0,0.2c-0.9,0-1.7,0.6-2.2,1.1c-0.9,0-1.7,0.5-2.4,1
			c-0.4,0.3-1.1,0.7-1.3,0.6c0,0-0.2-0.1-0.3-0.4c-0.2-0.4-0.8-0.6-1.2-0.4c-0.5,0.2-0.9,0.5-1.2,0.7c-0.4,0.3-0.8,0.5-1.2,0.6
			c-0.8-0.3-1.8-0.4-1.8-0.4c-0.5,0-1,0.5-1.4,0.9c-2.8-1.5-5.5-1.4-8.2,0.4c-1.1-2-1.1-3.6-1.2-5.6c0-1,0-2-0.2-3.3
			c0,0,0-0.1,0-0.1c0.1,0,0.2-0.1,0.3-0.2c3-3.2,6.1-6.9,7.3-10.5c0.1,0,0.2-0.1,0.3-0.2c0.6-0.7,1.4-1.4,2-1.7c0,1.4-0.6,3.3-0.9,4
			c0,0.1,0,0.1-0.1,0.2l-0.5,2.8c0,0,0,0,0,0.1c-0.5,1.2-1,2.4-1.7,3.4c-1.5,2.2-3.2,3.8-4.1,3.8c0,0,0,0,0,0
			c-0.5,0-0.9,0.4-0.9,0.9c0,0.5,0.4,0.9,0.9,1c0,0,0,0,0.1,0c2.2,0,4.7-3.2,5.6-4.6c0.8-1.2,1.4-2.5,1.9-3.8c0.6-1.5,1.2-2.8,2.1-4
			c1-1.2,3.7-3,5.6-3c0.3,0,0.7,0.1,0.9,0.2c-1.7,2.6-2.8,6-3,9.3c0,0.5,0.4,1,0.9,1c0.5,0,1-0.4,1-0.9c0.2-2.6,1-5.5,2.3-7.7
			c0,0,0,0,0,0c1.6-1.4,4.4-2.6,7.3-2.4c1.4,0.1,2.3,0.7,3.4,1.4c0.4,0.2,0.7,0.4,1.1,0.6c-1.6,1.7-2.6,3.8-3.2,5.8
			c-0.9-0.9-1.8-1.6-2.7-1.7c-0.6-0.1-1.2,0.1-1.7,0.6C194,164.1,194.1,168.2,194.3,172.7 M359.7,144.2c-0.9-0.1-1.8-0.3-2.5-0.7
			c-0.3-0.2-0.6-0.2-0.9-0.1c-0.3,0.2-0.5,0.5-0.5,0.8c-0.1,1.9,0.7,4.2,1.4,6.3c0.1,0.2,0.2,0.5,0.2,0.7c-0.8-0.4-1.8-0.7-2.8-0.6
			c-0.5,0-0.9,0.4-0.9,0.9c-0.1,1.1,0.2,2.3,0.6,3.4c-0.1,0-0.2-0.1-0.2-0.1c-0.2-0.1-0.5-0.1-0.7,0c-0.2,0.1-0.4,0.3-0.5,0.5
			c-0.8,1.7-0.3,3.5,0.2,5.3c0.1,0.3,0.1,0.5,0.2,0.8c-0.9-0.6-2.1-1-3.4-1.2c-0.3,0-0.6,0-0.8,0.2c-0.2,0.2-0.3,0.5-0.3,0.7
			c0.1,2,0.5,3.6,1.4,5.1c-0.4-0.2-0.8-0.5-1.2-0.8c-0.9-0.6-1.8-1.3-2.9-1.6c-0.3-0.1-0.5,0-0.8,0.1c-0.2,0.1-0.4,0.4-0.4,0.7
			c0,0.2,0,0.4,0,0.6c-0.3-0.2-0.7-0.3-1-0.1c0,0,0,0,0,0c-1.5-1.7-2.7-2-4.7-2.4c-0.5-0.1-1-0.2-1.5-0.3c-3.3-0.8-6.5-2.4-9.5-4
			c-0.6-0.3-1.2-0.6-1.7-0.9c-5.1-2.7-7.2-6.5-9.8-11.4c0.8,0.5,1.5,1,2.2,1.6l0.3,0.2c3.7,3,8.3,6.8,13.6,5.7
			c7-1.4,10.1-5.8,12.8-11.8c0.2-0.4,0.1-0.8-0.3-1.1c-0.5-0.4-0.9-0.8-1.4-1.2c-2-1.7-3.8-3.4-7.1-2.6c-2.8,0.7-5.8,4-5.4,7.1
			c0.1,0.5,0.5,0.9,1,0.8c0.5-0.1,0.9-0.5,0.8-1c-0.2-2,2.1-4.5,4-5c2.3-0.6,3.5,0.5,5.4,2.2c0.3,0.3,0.6,0.5,0.9,0.8
			c-2.4,5.3-5.2,8.8-11.1,10.1c-4.4,0.9-8.6-2.6-12-5.3l-0.3-0.2c-0.5-0.4-1-0.8-1.6-1.2c0-0.1,0-0.1-0.1-0.2
			c-1.3-2.8-1.2-5.8,0.3-8.9c2.8-6,9.9-10.6,15.4-12c0.5-0.1,0.8-0.6,0.7-1.1c-0.1-0.5-0.6-0.8-1.1-0.7c-5.8,1.5-13.4,6.3-16.6,13
			c-1.3,2.8-1.7,5.6-1,8.3c0,0,0,0-0.1,0c-2.6-1.7-5.1-3.2-6.5-5.6L309,137c0-0.9-0.1-1.8-0.3-2.8c-0.3-2.7-0.7-5.8,0.6-8.3
			c2.4-4.6,11.4-12.4,15.9-13c0.5-0.1,0.9-0.5,0.8-1.1c-0.1-0.5-0.5-0.9-1.1-0.8c-5.5,0.8-14.8,9.3-17.2,14c-1.4,2.6-1.3,5.5-1,8.1
			c-1.6-2.9-3.2-6-3.9-8.7c-0.1-0.5-0.1-1.3-0.2-2.1c0-1.1,0-2.3-0.4-3.2c0-8.6,9.1-16.2,17.4-17.7c0.5-0.1,0.9-0.6,0.8-1.1
			c-0.1-0.5-0.6-0.9-1.1-0.8c-8.5,1.5-17.4,8.6-18.8,17.4c-0.2-0.1-0.5-0.1-0.8-0.1c-0.2,0-0.4,0-1-0.4c-2.9-2.4-2.8-5.9-2.7-10.7
			l0-1.3c0.1-6.2,0.2-8.7,5.6-11c1.1-0.4,2.2-1,3.4-1.5c5.7-2.5,12.7-5.7,18.4-5.3c4.7,0.3,11.9,4.1,17.5,7.9c0,0.1,0,0.2,0,0.4
			c-0.3-0.1-0.7-0.3-1-0.6c0.9,1.9,1.9,5,4.2,5.7c-0.5-0.1-1-0.2-1.5-0.1c0.2,0.2,0.4,0.4,0.7,0.6c-0.2,0.3-0.3,0.7-0.1,1
			c0.3,0.5,0.6,1,1,1.5c-0.2,0-0.4,0.1-0.7,0.2c-0.3,0.1-0.6,0.4-0.7,0.7c-0.1,0.3,0,0.7,0.3,0.9c1,0.9,2.4,1.5,3.8,2
			c-0.9,0.5-2,0.8-2.8,1l-0.3,0.1c-0.4,0.1-0.6,0.4-0.7,0.8c0,0.4,0.2,0.8,0.5,0.9c1.4,0.7,2.9,1,4.3,1.2c-0.7,0.4-1.5,0.8-2.1,1
			l-0.4,0.2c-0.4,0.2-0.6,0.6-0.6,1c0.1,0.4,0.4,0.7,0.8,0.8c0.6,0.1,1.2,0.1,1.7,0.1c1.4,0,2.3,0.1,2.8,0.6c-1.5,0.1-2.9,0.3-4.1,1
			c-0.3,0.2-0.5,0.5-0.5,0.8c0,0.4,0.2,0.7,0.5,0.8c1.5,0.7,3.2,1.2,4.9,1.6c0.6,0.2,1.3,0.3,2,0.5c-0.8,0.2-1.7,0.5-2.4,0.8
			c-0.4,0.1-0.8,0.3-1.2,0.4c-0.3,0.1-0.6,0.4-0.6,0.7c-0.1,0.3,0,0.7,0.3,0.9c1.2,1.1,2.8,2,4.3,2.9c0.2,0.1,0.5,0.3,0.7,0.4
			c-0.1,0-0.2,0-0.3,0c-0.9,0-1.8-0.1-2.7-0.1c-0.4,0-0.8,0.3-0.9,0.7c-0.1,0.4,0.1,0.9,0.5,1c0.4,0.2,1,0.4,1.5,0.7
			c1.5,0.7,3.6,1.6,4.9,2.7c-1,0-2.1,0.1-3,0.5c-0.3,0.1-0.4,0.4-0.5,0.7c0,0.3,0.1,0.6,0.3,0.8c2.2,1.9,4,3.8,5.4,5.9
			c-0.5-0.1-1-0.1-1.5-0.2l-0.4,0c-0.3,0-0.6,0.1-0.8,0.4c-0.2,0.3-0.2,0.6-0.1,0.9c0.6,1.4,1.5,2.7,2.4,3.8
			C359.2,143.5,359.5,143.9,359.7,144.2L359.7,144.2z M308.1,144.8C308,144.8,308,144.8,308.1,144.8c-2.5,0-5.8-4.3-8-8.5
			c-0.4-0.7-0.9-1.6-1.5-2.6c-1.3-2.2-3-5.1-3.1-6.6c-0.2-3.8,0.2-6,3.1-8.3c0.1-0.1,0.1-0.1,0.2-0.2c0.4,0.1,0.8,0.1,1.1,0.1
			c0.1,0.1,0.3,0.4,0.6,1c0.3,0.6,0.3,1.6,0.3,2.6c0,0.9,0,1.8,0.2,2.5c1,4,3.8,8.7,6.1,12.5l0.7,1.2c0.8,1.4,2,2.6,3.3,3.6
			C310.1,143.9,309.1,144.8,308.1,144.8 M460.8,227.2c-0.1-0.8-0.7-2-1.3-3.3c-1.1-2.6-2.3-5.2-1.7-6.9c0.6-1.9,2.6-2.4,4.3-2.9
			c0.4-0.1,0.8-0.2,1.2-0.3c-2.7-2.1-4.9-6.7-6.8-10.6c-0.6-1.3-1.1-2.4-1.6-3.2c-1.9-3.4-4.1-6.5-6.3-9.6c-0.5-0.7-1-1.4-1.5-2.1
			c-0.2-0.3-0.2-0.6-0.1-0.9c0.1-0.3,0.4-0.5,0.7-0.6c1.9-0.4,3.8-0.2,5.4,0.4c-1.6-4.7-5.8-8.6-9.9-12.4c-3.3-3.1-6.8-6.3-8.8-9.9
			c-0.1-0.2-0.1-0.5-0.1-0.8c0.1-0.3,0.3-0.5,0.5-0.6c1.5-0.6,3.4-1.7,4.7-3c-5.1-0.8-10.1-3.6-14.7-8.1c-0.5-0.5-1.2-1.1-2-1.8
			c-3.9-3.5-7.2-6.6-7.4-9.1c0-0.3,0.1-0.5,0.2-0.7c0.2-0.2,0.4-0.3,0.7-0.3c2.3,0,4.5-0.4,6.8-0.9c0.4-0.1,0.7-0.1,1.1-0.2
			c-2-3.4-8.9-7.2-12.7-9.4c-0.7-0.4-1.4-0.8-1.9-1.1c-4.3-2.5-10-5.6-15.6-6.4c-0.4-0.1-0.7-0.3-0.8-0.7c-0.1-0.4,0.1-0.8,0.4-1
			c0.7-0.5,1.5-1.1,2.2-1.8c-3.5,0.5-7.3,0.5-11,0c-0.8-0.5-1.5-1-2.7-1.4c-2.6-0.8-5.7-1.1-8.1-2.2c-1.1-0.5-3.8-3-3-4.1
			c0.5-0.7,3.1-1,3.9-1.3c1-0.3,2.1-0.6,3.1-0.8c-4.1,0.3-9.4-1.5-12.8-3.7c-2.4-1.6-5.1-4.1-8.1-4.7c1.6-0.1,3.2,0.1,4.8,0
			c-0.9-0.7-2.5-1-3.6-1.4c-2.4-0.8-4.9-1.4-7.4-2.1c-1.8-0.5-3.6-1-5.3-1.7c-0.2-0.1-0.6-0.3-1-0.5c-0.1-0.6-0.4-1.1-0.9-1.5
			c-2.9-2.1-13.1-8.8-20.1-9.3c-0.3,0-0.7,0-1,0c-6,0-12.9,3.1-18.4,5.5c-1.2,0.5-2.3,1-3.3,1.5c-6.8,2.9-6.9,6.7-7,13l0,1.3
			c-0.1,4.7-0.2,8.8,2.8,11.9c-3.1,2.7-3.6,5.6-3.3,9.7c0.1,1.9,1.6,4.5,3.4,7.7c0.5,0.9,1.1,1.8,1.4,2.4c1.2,2.3,5.3,9.7,10,9.7
			c0,0,0,0,0.1,0c1.8,0,3.3-1.1,4.6-3.2c0.6,0.4,1.2,0.8,1.9,1.2c-0.3,0.6-0.2,1.3,0.1,1.9c2.5,4.8,4.9,9.3,10.8,12.3
			c0.5,0.3,1,0.5,1.5,0.8l0.2,0.1c3.2,1.7,6.4,3.4,10,4.2c0.6,0.1,1.1,0.2,1.6,0.3c1.8,0.4,2.5,0.5,3.4,1.6c0.5,0.6,1.3,0.9,2.1,0.8
			c0.2,0.1,0.4,0.1,0.7,0.1c0,0,0,0,0,0c0.7,0,1.4-0.3,1.8-0.9c0.2,0.1,0.3,0.2,0.5,0.3c0.1,0.3,0.2,0.5,0.3,0.8
			c0.1,0.2,0.2,0.4,0.3,0.6c0.1,0.4,0,0.8-0.3,1.1c-0.3,0.2-0.6,0.2-0.9,0.1c0.8,1.6,1.9,3.3,3.1,4.7c0.1-0.3,0.4-0.6,0.8-0.6
			c0.5-0.1,1,0.3,1,0.8c0.3,2.9,1.6,5.5,3,8.3c1.4,2.9,2.9,5.9,3.3,9.4c0.3,2.3,0,4.7-0.3,6.9c0,0.1,0,0.2,0,0.3c0,0.1,0,0.2,0,0.3
			c0,0.1,0,0.2-0.1,0.3c-0.2,1.6-0.3,3.1-0.2,4.6c0.3,4.7,4.1,9.2,7.8,13.5c0.1,0.1,0.1,0.1,0.2,0.2c0-0.3,0.2-0.6,0.4-0.8
			c0.3-0.2,0.8-0.2,1.1,0c9,6.9,19.2,18.6,18.5,29.1c0,0.5-0.4,0.9-0.9,0.9c0,0,0,0-0.1,0c-0.5,0-0.9-0.5-0.9-1
			c0.6-8.8-7.4-18.7-15.3-25.4c0.3,0.7,0.6,1.3,0.8,1.8c0.2,0.4,0.1,1-0.4,1.2c-0.4,0.2-1,0.1-1.2-0.3c-1.1-1.5-2.3-3-3.7-4.6
			c-3.7-4.3-7.8-9.2-8.2-14.6c-0.1-1.4,0-2.8,0.1-4.3c-1.5-0.1-3.4-0.4-5.3-0.6c-3.5-0.5-7.5-1-10.1-1c-0.4,0-0.7-0.2-0.9-0.6
			c-0.1-0.4,0-0.8,0.2-1c0.6-0.5,1.4-1,2.3-1.4c-3.7-1.2-8-0.8-12.1-0.4c-1.5,0.1-2.9,0.3-4.4,0.4c-0.4,0-0.8-0.2-0.9-0.7
			c-0.1-0.3,0-0.7,0.2-0.9c-7.9,0.8-15.4,2.6-23.1,5.6c0,0.1,0,0.2,0,0.3c-0.1,0.5-0.5,0.9-1,0.8c-0.1,0-0.2,0-0.3,0
			c-0.1,0-0.2,0-0.3,0c-0.4,0-0.9-0.1-1.3-0.8c-0.1-0.2-0.2-0.5-0.1-0.8c0.1-0.3,0.3-0.5,0.5-0.6c0,0,0.1,0,0.1-0.1
			c-0.1-0.1-0.1-0.3-0.1-0.5c0-1.1,1.1-2.1,2.4-3.3c0.2-0.2,0.4-0.3,0.5-0.5c-1.3-0.5-2.9-0.9-4.6-1.3c-5.4-1.3-11.5-2.8-12.7-8.7
			c-0.1-0.3,0-0.5,0.2-0.7c0.2-0.2,0.4-0.3,0.7-0.4c0.4,0,0.8-0.1,1.2-0.1c-4.6-2.7-8.6-7.3-10-11.8c-0.1-0.3,0-0.6,0.1-0.8
			c0.2-0.2,0.5-0.4,0.8-0.4c0.6,0,1.3-0.1,2-0.1c0.2,0,0.4,0,0.5-0.1c-4.9-7.2-7.9-17-9.5-23.9c-0.1,0.2-0.2,0.4-0.4,0.5
			c-0.1,0.1-0.3,0.1-0.5,0.1c-0.3,0-0.6-0.2-0.8-0.5c-1.1-1.8-0.9-8.3-0.9-8.3c0-0.4,0.3-0.7,0.6-0.9c0.4-0.1,0.8,0,1,0.3
			c0.1,0.1,0.2,0.2,0.4,0.4c-0.6-4.1-2.4-8-4.3-11.8c-1-2.1-2-4.2-2.8-6.3c-0.1-0.3,0-0.7,0.2-1c0.2-0.3,0.6-0.4,1-0.2
			c0.3,0.1,0.7,0.2,1,0.2c0.2,0,0.4,0.1,0.6,0.1c-0.7-1.3-2-2.5-3.2-3.8c-1.8-1.8-3.6-3.6-4.4-5.9c-0.1-0.3-0.1-0.5,0.1-0.8
			c0.1-0.2,0.4-0.4,0.6-0.5c0.3-0.1,0.5-0.2,0.8-0.3c-1.1-0.6-2.4-1.3-3.6-2.1c-0.9-1.9-2.4-3.5-3.6-5.3c1.6,0,2.9-0.8,3.4-2.2
			c-1.9-0.6-3.7-1.2-5.4-1.9c-1-0.6-2.3-1.2-3.6-1.7c-0.7-0.4-1.4-0.8-2.1-1.3c2.4-0.3,4.1-2.8,5.5-4.7c-4,0.1-7.9-1-12-0.9
			c0.9-0.8,0.6-1.4,1.1-2.1c-3.6,0.1-7.2-1.4-11.1-1.3c0.8-0.6,1.3-1.6,2-2.1c-4.8-0.5-9.4,1-14.2,1.2c-4.7,0-10.3-0.3-14,2.9
			c0.8-0.7,1.2-1.4,1.6-2c-8.3,0.8-16.6,9.7-22.1,14.3l0.1,0c-0.6,0.5-1.1,1-1.6,1.6c-1.1,1.3-2.1,2.7-3.2,4.4
			c-3.3,2.6-6.7,5.5-6.6,9.4c-0.3,0.2-0.6,0.5-0.8,0.8c-0.3,0.5-0.7,1-1.1,1.5c-0.6,0.7-1.1,1.4-1.4,2.2c-0.8,1.7-1.2,3.5-1.5,5.3
			c-0.1,0.5-0.2,1.1-0.3,1.6c-0.1,0.6-0.4,1.2-0.7,1.8c-0.4,0.7-0.6,1.2-0.7,1.8c0,0.3,0,0.7,0.1,1l-0.1,0.2l-1.1,4.4l0.7,0.6
			l0.4,2.6l-0.1,4l-0.9,3.9l1.7-0.1l-0.7,5.9l1.3-0.5l-0.8,5l0.9-0.2l-1.4,6.6l1.4,0.2c0,0.1-0.1,0.3-0.1,0.4
			c-0.3,1-0.4,2.1-0.6,3.1c-0.1,0.4-0.1,0.9-0.2,1.4c-0.1,0.3,0,0.7,0.1,1l-0.8,2.9l0.6,0c-0.4,0.8-0.8,1.5-1,2.2c0,0,0,0,0,0
			c-1,0-2,0.7-2.2,1.7c-0.2,0.7-0.2,1.3-0.2,1.9c0,0.2-0.1,0.5,0,0.7c0.2,1.7,0.5,3.4,0.9,5.4c0.1,0.3,0.2,0.6,0.4,0.8
			c-0.1,9.1,2.1,19.9,6.4,25.7c0.5-1.5,0.9-3,1.1-4.4c0.1-0.4,0.4-0.7,0.8-0.8c0.4,0,0.8,0.2,1,0.6c0.9,2.6,1.1,5.4,1.2,8.1
			c0,0.5,0,0.9,0.1,1.4c1.9-1.4,4-2.6,6-3.8c1.6-0.9,3.3-1.9,4.8-2.9c0.3-0.2,0.6-0.2,0.9-0.1c0.3,0.1,0.5,0.4,0.5,0.7
			c0.3,2.2-0.6,4.4-1.4,6.6c-0.4,1-0.8,2-1,3c2.8-0.8,5.7-2.5,8.4-4.3c2.3-1.5,4.8-3,7.2-3.9c0.3-0.1,0.6-0.1,0.9,0.1
			c0.2,0.2,0.4,0.5,0.4,0.8c0,1.2-0.2,2.3-0.5,3.4c3.2-2.5,6.9-4.7,10.5-6.8c4.8-2.8,9.8-5.7,13.7-9.6c0.3-0.3,0.7-0.3,1.1-0.1
			c0.4,0.2,0.5,0.6,0.5,1c-0.4,1.9-1.3,3.6-2.2,5.2c3.2-2.3,6.5-4.6,9.6-7.1c1.4-1.2,2.7-2.7,3.9-4.2c1.3-1.6,2.7-3.2,4.2-4.4
			c0.3-0.2,0.7-0.3,1-0.1c0.3,0.2,0.5,0.5,0.5,0.8c0,1.6-0.4,3.3-0.8,5c0,0,0.1-0.1,0.1-0.1c2.5-2.9,5.1-6,6.2-9.4
			c0.1-0.4,0.5-0.7,0.9-0.7c0,0,0,0,0,0c0.4,0,0.7,0.2,0.9,0.6c0.7,1.9,0.5,4.6,0,7.4c3.5-3.7,8-8.8,8.3-12.7c0-0.5,0.4-0.9,0.9-0.9
			c0.5,0,0.9,0.3,1,0.8c0.1,0.4,0.1,0.8,0.2,1.1c0.2,1,0.3,2.1,0.5,3.1c1.6-5.6,3-11.7,2.4-17.1c0-0.1,0-0.1,0-0.2c0,0,0,0,0-0.1
			c0,0,0,0,0-0.1c0.1-1,1-1,1-1c0,0,0.9,0.1,0.9,1.1c0,0,0,0,0,0.1c0.6,6.7-1.4,14.2-3.4,20.8c-0.1,0.4-0.4,0.6-0.8,0.7
			c-0.4,0-0.8-0.2-0.9-0.6c-0.5-1.2-0.8-2.4-1.1-3.6c-1.9,3.9-5.8,8-8.6,10.9c-0.5,0.5-0.9,0.9-1.3,1.3c-0.3,0.3-0.8,0.4-1.1,0.2
			c-0.4-0.2-0.6-0.6-0.5-1c0.3-1.4,0.9-3.9,1.1-6.2c-1.4,2.4-3.2,4.6-5,6.7c-1,1.1-1.9,2.2-2.7,3.3c-0.3,0.3-0.7,0.5-1.1,0.3
			c-0.4-0.2-0.6-0.6-0.5-1c0.2-1.1,0.5-2.2,0.8-3.3c0.3-1,0.6-2,0.8-3c-0.7,0.8-1.5,1.6-2.2,2.5c-1.3,1.5-2.6,3.1-4.2,4.4
			c-3.5,2.9-7.2,5.5-10.8,8c-0.6,0.5-1.3,0.9-1.9,1.4c-0.3,0.2-0.8,0.2-1.1,0c-0.3-0.3-0.4-0.7-0.3-1.1c0.4-1,1-2,1.5-3
			c0.3-0.6,0.7-1.2,1-1.8c-3.5,2.8-7.4,5.1-11.2,7.3c-4.9,2.9-9.4,5.6-13.2,9.1c-0.3,0.3-0.9,0.3-1.2,0.1c-0.4-0.3-0.5-0.8-0.2-1.2
			c0.9-1.6,1.5-3.3,1.7-4.8c-1.8,0.8-3.6,1.9-5.5,3.1c-3.3,2.1-6.8,4.3-10.5,4.8c0,0-0.1,0-0.1,0c-0.2,0-0.5-0.1-0.6-0.3
			c-0.2-0.2-0.3-0.5-0.3-0.8c0.2-1.6,0.8-3.2,1.4-4.8c0.6-1.4,1.1-2.7,1.3-4c-1.1,0.7-2.3,1.4-3.5,2.1c-2.5,1.5-5.1,3-7.2,4.7
			c-0.3,0.2-0.6,0.3-1,0.2c-0.3-0.1-0.5-0.4-0.6-0.8c-0.1-1.1-0.1-2.2-0.2-3.2c-0.1-1.2-0.1-2.5-0.2-3.7c-0.2,0.7-0.5,1.5-0.7,2.2
			l0,0.1c-0.1,0.3-0.4,0.6-0.7,0.6c-0.3,0.1-0.7,0-0.9-0.3c-2.2-2.4-3.9-5.8-5.1-9.6c-1.4,2.6-4.5,3.8-7.1,4.8
			c-0.3,0.1-0.5,0.2-0.8,0.3c0.4,0.2,0.7,0.3,1,0.4c0.4,0.1,0.7,0.5,0.7,0.9c0,0.4-0.3,0.8-0.7,0.9c-2.7,0.6-5.7,0.8-8.5,0.9
			c-3,0.1-6.1,0.2-8.8,1c0.1,0,0.1,0.1,0.2,0.1c0.4,0.1,0.7,0.5,0.6,1c0,0.4-0.4,0.8-0.8,0.8c-4.1,0.4-8.2,1.6-12.3,2.9
			c-2.4,0.7-4.9,1.5-7.3,2c0,0.1,0.1,0.2,0.1,0.3c0.1,0.3,0.3,0.9,0.4,1c0.2,0.3,0.3,0.6,0.1,0.9s-0.4,0.5-0.8,0.6
			c-1.5,0.1-3.2,0.1-4.9,0c-4.5-0.1-8.8-0.2-10.8,3.1c0.5,0,1,0.1,1.5,0c0.5-0.1,0.9,0.1,1.1,0.6c0.2,0.4,0,0.9-0.4,1.2
			c-0.6,0.3-1.2,0.6-1.8,0.9c-2.8,1.4-6,2.9-7.3,5.3c-0.6,1-0.9,1.9-1.2,2.8c-0.6,1.5-1.1,2.9-2.5,4.1c0.3,0.8,0.7,1.7,1.2,2.5
			c0.1,0.2,0.1,0.3,0.2,0.5c0,0.1,0.1,0.1,0.1,0.2c0.1,0.3,0.3,0.5,0.4,0.8c0.2,0.4,0.1,0.8-0.2,1c0.3,4.6-0.7,9-1.9,13.2
			c-0.1,0.5-0.6,0.8-1.1,0.7c-0.5-0.1-0.8-0.6-0.7-1c0.2-1.3-0.5-4.1-1.8-5.1c-0.2-0.1-0.3-0.2-0.5-0.3c0.6,5.6,0.4,11.1-0.6,16.3
			c5.5-2.6,16.9,13.9,23,13.9c3.6,0,2.9-11.5,5-16.4c-1,2.2,0.3-4.9,0.8-7.3c0.4-2,1.2-4,2-6c0.6-1.4,1.2-2.8,1.6-4.3
			c0.4,0.7,0.8,1.5,1.2,2.2c1.1,2,2.1,4.1,3.5,5.8c0.3,0.3,0.7,0.4,1.1,0.3c0.4-0.1,0.6-0.5,0.6-0.9c-0.3-4.2-0.2-7.5,0.1-10.8
			c0.2,0.3,0.4,0.6,0.7,0.9c1.3,1.8,2.8,3.8,5.3,4.4c0.3,0.1,0.6,0,0.8-0.2c0.2-0.2,0.4-0.4,0.4-0.7c0-0.9,0.1-1.9,0.1-2.7
			c0-2.9,0.1-5.7,1.1-8.5c1.4,0.8,2.7,1.8,4.1,3c1.3,1.1,2.6,2.2,4.1,3c0.3,0.2,0.6,0.2,0.9,0c0.3-0.2,0.5-0.5,0.5-0.8
			c0.1-2.3-0.1-4.5-0.3-6.6c3.3,3.1,7.6,4.5,11.9,3.6c0.3-0.1,0.6-0.3,0.7-0.6c0.1-0.3,0-0.7-0.2-0.9c-1.2-1.4-2.2-2.6-2.8-3.9
			c3.2,1.6,7.1,2.6,11.3,2.9c0.3,0,0.6-0.1,0.8-0.4c0.2-0.3,0.2-0.6,0.1-0.9c-0.3-0.9-0.8-1.8-1.3-2.7c1.5,0.7,3,1.1,4.6,1.5
			c3,0.8,5.8,1.6,7.7,3.9c0.2,0.3,0.6,0.4,1,0.3c0.4-0.1,0.6-0.4,0.7-0.8c0.3-2-0.2-3.8-0.9-5.5c1.4,0.9,2.6,1.9,3.8,3.1
			c0.3,0.3,0.7,0.4,1,0.2c0.4-0.1,0.6-0.5,0.6-0.8l0-0.9c0-1.1,0.1-2.2,0-3.3c1.4,1.4,3,2.6,4.7,3.9c2.2,1.7,4.3,3.3,5.6,5.1
			c0.2,0.3,0.6,0.5,1,0.4c0.4-0.1,0.7-0.5,0.7-0.9c0-0.4,0-0.7,0-1.1c0.1,0.8,0.2,1.6,0.4,2.3c0.1,0.4,0.4,0.7,0.8,0.7
			c0.4,0,0.8-0.2,1-0.6c1.2-2.7,2.9-6,4.7-8.2c-0.2,1-0.5,2-0.9,3c-0.3,1-0.7,2.1-0.9,3.2c-0.1,0.5,0.2,1,0.7,1.1
			c0.5,0.1,1-0.1,1.1-0.6c2.2-5.9,11.5-11.4,18.1-13.4c0,0,0,0.1-0.1,0.1c-0.6,1.2-1.1,2.4-1.8,3.5c-0.6,0.7-1.1,1.5-1.6,2.3
			c-0.3,0.4-0.2,1,0.2,1.3c0.4,0.3,0.9,0.2,1.3-0.1c0.6-0.7,1.1-1.4,1.6-2.3c3.5-4.6,9-8.9,14.3-11.4c0,0,0,0.1-0.1,0.1
			c-1,1.7-1.9,3.5-3.1,5.1c-0.4,0.4-0.8,0.9-1.1,1.3c-0.3,0.4-0.3,1,0.1,1.3c0.4,0.3,0.9,0.3,1.3-0.1c0.4-0.4,0.8-0.9,1.2-1.3
			c3.7-4.1,8.4-6.9,13.2-8c-0.2,0.3-0.5,0.7-0.7,1c-1.3,2-2.7,4.1-4.3,5.6c-0.4,0.3-0.4,0.9-0.1,1.3c0.3,0.4,0.9,0.4,1.3,0.1
			c5.3-4,11.8-6.7,18.4-7.8c-0.8,0.8-1.6,1.5-2.4,2.2l-0.4,0.3c-0.3,0.2-0.5,0.5-0.8,0.7c-0.4,0.3-0.4,0.9-0.1,1.3
			c0.3,0.4,0.9,0.4,1.3,0.1c0.2-0.2,0.5-0.4,0.7-0.6c4.8-4,10.7-5.7,16.7-7c-0.4,0.4-0.9,0.8-1.3,1.2c-0.8,0.7-1.5,1.4-2.2,2.2
			c-0.3,0.3-0.3,0.8-0.1,1.2c0.3,0.4,0.7,0.5,1.1,0.3l0.5-0.2c3.1-1.3,6.1-2.6,9.3-2.7c-0.8,0.8-1.8,1.6-2.6,2.3c0,0,0,0,0,0
			c-0.4,0.3-0.5,0.9-0.1,1.3c0.3,0.4,0.9,0.5,1.3,0.1c0.5-0.4,0.9-0.6,1.4-0.6c1.7,0,6.4,2.9,12.5,30.2c0.1,0.4,0.2,0.7,0.2,1
			c2.8,12.1,4.7,27-5.4,35.5c-5,4.2-13.1,6.7-19,7.3c-2.9,0.3-5.9,0.5-8.9,0.5c-11.3,0-23.6-2.3-36.4-6.7c-1-0.3-1.9-0.7-2.9-1
			c-9.9-3.5-18.6-6.5-27.6-7.3c-3.9-8.8-3-30.4,0.8-36.8c0.3-0.4,0.1-1-0.3-1.3c-0.4-0.3-1-0.1-1.3,0.3c-3.9,6.7-5,27.7-1.2,37.6
			c-0.7,0-1.3,0-2,0c-7.6,0-14.9,1.9-22.5,5.8c-7,3.6-13.8,8.4-21.6,15c-2.1,1.8-4.3,3-6.5,3.7c-0.1,0.6-0.2,1.3-0.4,2
			c2.7-0.7,5.4-2.1,8-4.3c7.6-6.5,14.4-11.2,21.2-14.7c7.3-3.8,14.4-5.6,21.6-5.6c1,0,1.9,0,2.9,0.1c0.2,0.3,0.5,0.4,0.8,0.4
			c0.1,0,0.3,0,0.4-0.1c0.1-0.1,0.2-0.1,0.2-0.2c8.6,0.8,17.1,3.8,26.7,7.1c0.9,0.3,1.9,0.7,2.9,1c13,4.5,25.5,6.8,37,6.8
			c3.1,0,6.2-0.2,9.1-0.5c1.5-0.2,3.2-0.5,5.1-0.9c-2.4,7.2-1.5,17.1,0.1,25.7c1.7,0.4,3.2,1,4.7,1.8c0.3-0.5,0.5-1,0.7-1.5l0.3-0.6
			l0.4-0.5c2.7-4,7.1-6.2,11.9-6.2c4.2,0,8.6,1.8,11.6,4.9c1.6,1.5,2.8,3.3,3.6,5.4c0.3,0.7,0.6,1.3,0.9,2c4.2-7.1,9.6-14.2,17.2-20
			c0.1-0.1,0.3-0.2,0.4-0.3c-0.3-1-0.7-2-1-2.9c-0.2-0.2-0.3-0.3-0.5-0.5c-2-1.9-3.9-3.7-6.5-4c0.1,1.1,0,2.2-0.9,2.8
			c-1.6,1-4.1-0.7-6.9-2.9c-0.3-0.3-0.6-0.5-0.8-0.6c-0.1-0.1-0.3-0.2-0.5-0.4c-5.4-4.1-7.1-4.3-7.7-4.1c0,0-0.1,0-0.2,0.3
			c-0.1,0.5-0.6,0.8-1.1,0.7c-0.5-0.1-0.8-0.6-0.7-1.1c0.2-1,0.9-1.4,1.4-1.6c2.1-0.8,5.8,1.7,9.4,4.4c0.2,0.2,0.4,0.3,0.5,0.4
			c0.2,0.2,0.5,0.4,0.9,0.7c2.7,2.1,4.3,3,4.8,2.8c0,0,0.2-0.4-0.1-2c-0.1-0.3,0-0.5,0.2-0.8c0.2-0.2,0.4-0.3,0.7-0.4
			c3.9-0.2,6.5,2.2,8.9,4.5c0,0,0.1,0.1,0.1,0.1c0.3,0.1,0.6,0.3,0.7,0.6c0,0,0,0,0,0c0.1,0.1,0.3,0.3,0.4,0.4
			c-0.1-0.2-0.2-0.4-0.3-0.6c-0.1-0.3-0.1-0.6,0-0.8c0.1-0.3,0.4-0.4,0.7-0.5c2.5-0.5,5.6,0.3,8.5,1.4c0.4,0,0.8-0.1,1.2-0.1
			c0.7,0,1.5,0.1,2.2,0.2c0,0,0.1,0,0.1,0c-0.3-0.9-0.5-1.8-0.4-2.8c0-0.5,0.4-0.9,0.9-0.9c2.4-0.2,4.9,0.1,7.7,1
			c-0.3-0.6-0.7-1.2-1-1.8c-0.4-0.6-0.7-1.3-1.1-1.9c-0.2-0.3-0.2-0.7,0-1c0.2-0.3,0.5-0.4,0.9-0.4c1.1,0.1,2.3,0.1,3.5,0.1
			c2.6,0,5.5,0.1,8.1,1c-0.3-0.7-0.5-1.5-0.7-2.1c-0.1-0.3,0-0.7,0.2-0.9c0.2-0.2,0.6-0.3,0.9-0.3c2.1,0.5,4.2,0.6,6.4,0.8
			c0.5,0,0.9,0.2,1.4,0.1c9-2.5,42.4-8.8,41.5-6.8c1-0.7,1.9-1.6,2.9-2.5l0.2-0.2c0.3-0.3,1.6,0.3,1.6,0.7c0,1.1,0,2.1,0.1,3.2
			c0,0.5,0,1,0,1.5c3.8-3.2,8.6-7.5,11-11.4c0.2-0.4,0.7-0.5,1.1-0.4c0.4,0.1,0.7,0.6,0.6,1c-0.1,1.1-0.5,2.2-0.8,3.2
			c0,0.1-0.1,0.3-0.1,0.4c2.2-1.8,4.8-3.1,7.4-4.5c2.2-1.2,4.3-2.2,6.1-3.6c1.6-1.2,2.4-2.6,3.4-4.3c0.3-0.5,0.5-1,0.8-1.5
			c0.2-0.3,0.6-0.5,1-0.4c0.4,0.1,0.7,0.4,0.7,0.8c0.1,0.8,0.1,1.7,0.2,2.5c4.7-6.4,7.7-11.7,8.1-19.6c0-0.3,0.1-0.5,0.3-0.7
			c0.2-0.2,0.4-0.2,0.7-0.2c1.4,0.1,2.5,1.1,3.4,2.3c0.7-5,0.5-10.4,0.2-15.6l0-0.7c0-0.4,0.2-0.8,0.6-0.9c0.4-0.1,0.8,0,1.1,0.3
			l0.1,0.1c0.6,0.8,1.2,1.7,2,2.4c-0.2-1.4-0.3-2.8-0.5-4.2C461.4,231.5,461.2,229.3,460.8,227.2"/>
	</g>
</g>
</svg>
